#!OML:ASF H:\LiuWeirdWalks\Patient Classification 1\Patient 1\Session 1\male.ASF
:FULLY-SPECIFIED
:DEGREES
1738
root 2.71682 18.0582 26.1411 3.92 2.23893 -3.68933
lowerback 2.77385 0.255368 -0.428155
upperback -0.109462 0.37067 2.56409
thorax -1.68759 0.200059 2.85926
lowerneck -20.4549 2.32984 6.4381
upperneck 24.3335 3.23593 -7.33346
head 11.5606 1.12252 -3.29293
rclavicle 4.12478e-015 2.0276e-014
rhumerus -34.3739 -0.744317 -81.2831
rradius 33.0105
rwrist -7.08187
rhand -16.3845 -3.48224
rfingers 7.12502
rthumb 9.82925 -33.2328
lclavicle 4.12478e-015 2.0276e-014
lhumerus -44.0283 6.89935 79.3492
lradius 42.7899
lwrist 14.3457
lhand -12.6311 -2.26544
lfingers 7.12502
lthumb 13.4488 27.2804
rfemur -4.26316 -5.54404 18.519
rtibia 58.8069
rfoot 18.2848 -3.96287
rtoes 9.6532
lfemur -12.493 0.389596 -21.6343
ltibia 26.9128
lfoot -12.1379 10.2687
ltoes -5.06553
1739
root 2.72269 18.0572 26.1697 3.78968 2.11194 -3.67462
lowerback 2.93984 0.398761 -0.143706
upperback -0.112998 0.571196 2.43272
thorax -1.79072 0.297857 2.55397
lowerneck -20.6044 2.08446 6.12769
upperneck 24.4807 2.90708 -7.04112
head 11.6081 0.979797 -3.18671
rclavicle 9.93923e-016 1.09332e-014
rhumerus -34.5279 -1.47221 -81.0499
rradius 33.0019
rwrist -6.99793
rhand -16.3241 -3.47572
rfingers 7.12502
rthumb 9.88747 -33.2235
lclavicle 9.93923e-016 1.09332e-014
lhumerus -43.7743 6.14791 79.6012
lradius 42.8084
lwrist 14.4052
lhand -12.5942 -2.20753
lfingers 7.12502
lthumb 13.4843 27.3359
rfemur -4.95431 -5.49161 18.4324
rtibia 59.8759
rfoot 17.7176 -3.87682
rtoes 9.19466
lfemur -12.2042 0.489761 -21.6645
ltibia 26.8526
lfoot -12.1649 10.305
ltoes -5.19966
1740
root 2.72956 18.0562 26.1976 3.70056 1.99487 -3.52011
lowerback 3.03141 0.760005 0.378403
upperback -0.0742753 1.06543 2.08234
thorax -1.80841 0.538098 1.87613
lowerneck -20.9708 1.57437 5.52996
upperneck 24.6849 2.21065 -6.46581
head 11.687 0.6784 -2.98639
rclavicle -2.62147e-015 -1.66979e-014
rhumerus -34.7463 -2.96858 -80.6401
rradius 33.051
rwrist -6.88559
rhand -16.2748 -3.4524
rfingers 7.12502
rthumb 9.93506 -33.198
lclavicle -2.62147e-015 -1.66979e-014
lhumerus -43.2054 4.67253 80.0491
lradius 42.7391
lwrist 14.5099
lhand -12.5595 -2.18204
lfingers 7.12502
lthumb 13.5178 27.3592
rfemur -5.69997 -5.48316 18.1773
rtibia 60.9555
rfoot 17.0411 -3.81868
rtoes 8.67655
lfemur -11.9201 0.564262 -21.8563
ltibia 26.718
lfoot -12.1472 10.3454
ltoes -5.34549
1741
root 2.73644 18.0549 26.2256 3.61793 1.8891 -3.33723
lowerback 3.04337 1.0952 0.839136
upperback -0.115342 1.52338 1.74048
thorax -1.84961 0.760829 1.24465
lowerneck -20.8109 1.05227 4.96519
upperneck 24.7153 1.51607 -5.92811
head 11.6064 0.384547 -2.79809
rclavicle 9.31803e-016 -6.4605e-015
rhumerus -35.2017 -4.34325 -80.2387
rradius 33.1597
rwrist -6.83
rhand -16.2575 -3.40592
rfingers 7.12502
rthumb 9.95178 -33.1507
lclavicle 9.31803e-016 -6.4605e-015
lhumerus -42.8865 3.20591 80.456
lradius 42.707
lwrist 14.6142
lhand -12.5256 -2.17006
lfingers 7.12502
lthumb 13.5505 27.369
rfemur -6.44954 -5.4987 17.8878
rtibia 62.0106
rfoot 16.2826 -3.82255
rtoes 8.11249
lfemur -11.6274 0.631083 -22.081
ltibia 26.5542
lfoot -12.118 10.3828
ltoes -5.48916
1742
root 2.74466 18.0532 26.2526 3.55978 1.79621 -3.05946
lowerback 2.9939 1.32349 1.05977
upperback -0.136248 1.82947 1.45356
thorax -1.83184 0.910093 0.813635
lowerneck -20.5808 0.664588 4.54759
upperneck 24.6759 1.00448 -5.54005
head 11.5076 0.167634 -2.65926
rclavicle -1.17034e-014 -1.90833e-014
rhumerus -35.5678 -5.35613 -79.9178
rradius 33.2669
rwrist -6.81059
rhand -16.2581 -3.36489
rfingers 7.12502
rthumb 9.95119 -33.1097
lclavicle -1.17034e-014 -1.90833e-014
lhumerus -42.6392 2.07441 80.7875
lradius 42.7107
lwrist 14.7332
lhand -12.5231 -2.19382
lfingers 7.12502
lthumb 13.5529 27.3451
rfemur -7.22532 -5.5559 17.4753
rtibia 63.0338
rfoot 15.4554 -3.88711
rtoes 7.47496
lfemur -11.3599 0.675323 -22.4185
ltibia 26.3916
lfoot -12.0866 10.4302
ltoes -5.61939
1743
root 2.75006 18.0512 26.2799 3.44175 1.71068 -2.99952
lowerback 3.02982 1.50455 1.42258
upperback -0.15767 2.08103 1.25076
thorax -1.85529 1.03095 0.390334
lowerneck -20.3395 0.342242 4.22247
upperneck 24.6193 0.570539 -5.2125
head 11.4102 -0.013965 -2.54566
rclavicle 3.4806e-014 -4.87022e-015
rhumerus -35.9294 -6.22028 -79.6577
rradius 33.3772
rwrist -6.79936
rhand -16.2633 -3.35329
rfingers 7.12502
rthumb 9.94618 -33.0983
lclavicle 3.4806e-014 -4.87022e-015
lhumerus -42.444 1.06085 81.0567
lradius 42.723
lwrist 14.8386
lhand -12.5042 -2.17617
lfingers 7.12502
lthumb 13.5711 27.3615
rfemur -7.92636 -5.58157 17.3359
rtibia 63.9828
rfoot 14.5937 -4.10336
rtoes 6.78526
lfemur -11.0534 0.741239 -22.5014
ltibia 26.2641
lfoot -12.0865 10.4641
ltoes -5.73599
1744
root 2.75441 18.049 26.3064 3.30843 1.62233 -3.01333
lowerback 3.0378 1.41957 1.40475
upperback -0.231341 1.96957 1.28995
thorax -1.93769 0.975117 0.444116
lowerneck -19.7009 0.341921 4.27934
upperneck 24.4021 0.582744 -5.26533
head 11.2043 -0.00390886 -2.56157
rclavicle 2.79541e-016 1.27222e-014
rhumerus -36.2321 -6.15429 -79.6091
rradius 33.4388
rwrist -6.8276
rhand -16.2598 -3.37818
rfingers 7.12502
rthumb 9.94948 -33.123
lclavicle 2.79541e-016 1.27222e-014
lhumerus -42.6173 0.905956 81.115
lradius 42.807
lwrist 14.8836
lhand -12.4985 -2.16514
lfingers 7.12502
lthumb 13.5766 27.3722
rfemur -8.61253 -5.59032 17.2938
rtibia 64.8696
rfoot 13.6994 -4.43211
rtoes 6.10553
lfemur -10.753 0.821971 -22.4951
ltibia 26.1701
lfoot -12.1093 10.4904
ltoes -5.81948
1745
root 2.75875 18.0465 26.3335 3.17137 1.53463 -3.03382
lowerback 3.06997 1.28173 1.29622
upperback -0.241101 1.78468 1.38425
thorax -1.97241 0.884318 0.609057
lowerneck -19.3724 0.422259 4.39831
upperneck 24.2646 0.702039 -5.39683
head 11.0965 0.0475277 -2.60602
rclavicle 3.47252e-015 -3.97569e-016
rhumerus -36.3369 -5.9194 -79.6067
rradius 33.4662
rwrist -6.86087
rhand -16.2496 -3.42294
rfingers 7.12502
rthumb 9.95933 -33.1673
lclavicle 3.47252e-015 -3.97569e-016
lhumerus -42.6796 0.959957 81.1496
lradius 42.8853
lwrist 14.9028
lhand -12.4698 -2.11216
lfingers 7.12502
lthumb 13.6042 27.4233
rfemur -9.27356 -5.60462 17.2596
rtibia 65.6743
rfoot 12.7694 -4.83237
rtoes 5.41312
lfemur -10.483 0.910805 -22.4791
ltibia 26.154
lfoot -12.1823 10.5188
ltoes -5.89563
1746
root 2.76297 18.0438 26.3614 3.02813 1.45202 -3.05543
lowerback 3.1572 1.28844 1.43984
upperback -0.209231 1.79975 1.3552
thorax -1.98332 0.890106 0.49654
lowerneck -19.3835 0.332023 4.30736
upperneck 24.2562 0.578795 -5.31257
head 11.0877 -0.00656321 -2.57787
rclavicle -1.7903e-014 8.84592e-015
rhumerus -36.442 -6.2091 -79.4891
rradius 33.5153
rwrist -6.84804
rhand -16.2313 -3.47247
rfingers 7.12502
rthumb 9.977 -33.216
lclavicle -1.7903e-014 8.84592e-015
lhumerus -42.4927 0.545625 81.294
lradius 42.8938
lwrist 14.9039
lhand -12.4162 -2.03637
lfingers 7.12502
lthumb 13.6559 27.4956
rfemur -9.90947 -5.6277 17.2253
rtibia 66.4092
rfoot 11.8049 -5.28851
rtoes 4.78818
lfemur -10.222 1.00709 -22.4596
ltibia 26.179
lfoot -12.2855 10.5387
ltoes -5.96729
1747
root 2.76521 18.0406 26.3905 2.81146 1.38588 -3.32516
lowerback 3.30519 1.14427 1.56915
upperback -0.127335 1.61797 1.52463
thorax -1.98388 0.799053 0.604402
lowerneck -19.4916 0.419099 4.38272
upperneck 24.2556 0.700784 -5.41346
head 11.1162 0.0414504 -2.61069
rclavicle -2.17856e-014 -2.59414e-014
rhumerus -36.3617 -6.04654 -79.4815
rradius 33.516
rwrist -6.84568
rhand -16.2071 -3.50439
rfingers 7.12502
rthumb 10.0004 -33.2468
lclavicle -2.17856e-014 -2.59414e-014
lhumerus -42.3587 0.629607 81.3344
lradius 42.924
lwrist 14.8786
lhand -12.3689 -2.00163
lfingers 7.12502
lthumb 13.7014 27.5273
rfemur -10.431 -5.62503 17.4889
rtibia 67.0493
rfoot 10.8041 -5.83973
rtoes 4.21157
lfemur -9.90288 1.13042 -22.153
ltibia 26.243
lfoot -12.4324 10.5266
ltoes -6.03801
1748
root 2.76737 18.0374 26.4185 2.61496 1.31211 -3.54238
lowerback 3.47985 0.916104 1.49507
upperback 0.00906228 1.31707 1.75456
thorax -1.94901 0.651138 0.894912
lowerneck -19.8814 0.632826 4.56945
upperneck 24.3256 0.990388 -5.63408
head 11.2379 0.15721 -2.6856
rclavicle 1.05977e-014 -2.28602e-015
rhumerus -36.0559 -5.6377 -79.5447
rradius 33.4708
rwrist -6.83784
rhand -16.1858 -3.52581
rfingers 7.12502
rthumb 10.0209 -33.2672
lclavicle 1.05977e-014 -2.28602e-015
lhumerus -42.1486 1.03032 81.3181
lradius 42.9597
lwrist 14.8573
lhand -12.3401 -1.97909
lfingers 7.12502
lthumb 13.7292 27.548
rfemur -10.9774 -5.61635 17.6962
rtibia 67.6415
rfoot 9.78098 -6.41184
rtoes 3.72568
lfemur -9.61533 1.25355 -21.903
ltibia 26.3202
lfoot -12.5761 10.5173
ltoes -6.12736
1749
root 2.76942 18.034 26.4459 2.42278 1.23831 -3.74484
lowerback 3.62114 0.661779 1.36804
upperback 0.100789 0.979317 1.99585
thorax -1.93872 0.484978 1.23005
lowerneck -19.9968 0.860584 4.77793
upperneck 24.321 1.30547 -5.872
head 11.2815 0.287033 -2.76216
rclavicle -1.51076e-014 -1.13307e-014
rhumerus -35.8525 -5.13817 -79.6208
rradius 33.4367
rwrist -6.85104
rhand -16.1696 -3.52094
rfingers 7.12502
rthumb 10.0366 -33.2616
lclavicle -1.51076e-014 -1.13307e-014
lhumerus -42.0741 1.49848 81.2685
lradius 43.0045
lwrist 14.8056
lhand -12.3286 -2.00043
lfingers 7.12502
lthumb 13.7404 27.5259
rfemur -11.5257 -5.60378 17.8886
rtibia 68.1898
rfoot 8.73618 -6.98368
rtoes 3.36654
lfemur -9.32973 1.38268 -21.6675
ltibia 26.386
lfoot -12.7126 10.4997
ltoes -6.23272
1750
root 2.77184 18.0303 26.4717 2.26693 1.15403 -3.82676
lowerback 3.7532 0.166061 0.707206
upperback 0.189588 0.29979 2.40259
thorax -1.91913 0.153288 2.05515
lowerneck -20.0404 1.40552 5.32912
upperneck 24.2509 2.05593 -6.46114
head 11.3257 0.601552 -2.95843
rclavicle 4.5472e-015 -6.16232e-015
rhumerus -35.4386 -3.79558 -79.9009
rradius 33.3344
rwrist -6.92325
rhand -16.1581 -3.49937
rfingers 7.12502
rthumb 10.0477 -33.2395
lclavicle 4.5472e-015 -6.16232e-015
lhumerus -42.189 2.79597 81.025
lradius 43.0973
lwrist 14.7293
lhand -12.3563 -2.03664
lfingers 7.12502
lthumb 13.7137 27.4915
rfemur -12.1287 -5.59193 17.9422
rtibia 68.725
rfoot 7.65242 -7.5186
rtoes 2.99674
lfemur -9.05972 1.49722 -21.5691
ltibia 26.396
lfoot -12.8039 10.4955
ltoes -6.3371
1751
root 2.77605 18.0264 26.4961 2.1681 1.0771 -3.69243
lowerback 3.90086 -0.25873 -0.00150125
upperback 0.289966 -0.291969 2.66722
thorax -1.87566 -0.136083 2.75943
lowerneck -20.3381 1.88305 5.7939
upperneck 24.2712 2.69949 -6.93824
head 11.4528 0.869533 -3.11789
rclavicle 1.16538e-014 -3.29983e-014
rhumerus -34.9967 -2.70604 -80.1486
rradius 33.2446
rwrist -7.00026
rhand -16.1502 -3.4891
rfingers 7.12502
rthumb 10.0552 -33.2289
lclavicle 1.16538e-014 -3.29983e-014
lhumerus -42.1447 3.85569 80.8151
lradius 43.1511
lwrist 14.6574
lhand -12.3817 -2.06784
lfingers 7.12502
lthumb 13.6892 27.4619
rfemur -12.8055 -5.62389 17.731
rtibia 69.2493
rfoot 6.51981 -7.95972
rtoes 2.60311
lfemur -8.82387 1.58439 -21.7225
ltibia 26.3483
lfoot -12.8466 10.5082
ltoes -6.44998
